<?xml version="1.0" encoding="utf-8"?>
<!-- Generator: Adobe Illustrator 15.1.0, SVG Export Plug-In . SVG Version: 6.00 Build 0)  -->
<!DOCTYPE svg PUBLIC "-//W3C//DTD SVG 1.1//EN" "http://www.w3.org/Graphics/SVG/1.1/DTD/svg11.dtd">
<svg version="1.1" id="Layer_1" xmlns="http://www.w3.org/2000/svg" xmlns:xlink="http://www.w3.org/1999/xlink" x="0px" y="0px"
	 width="40px" height="40px" viewBox="0 0 40 40" enable-background="new 0 0 40 40" xml:space="preserve">
<g>
	<g>
		<path id="a_1_" fill="#FF4785" d="M5.241,36.859L4.002,3.841c-0.041-1.09,0.795-2.015,1.884-2.083l28.083-1.755
			c1.108-0.069,2.063,0.773,2.133,1.882c0.002,0.042,0.004,0.083,0.004,0.125v35.977c0,1.111-0.899,2.013-2.012,2.013
			c-0.029,0-0.06,0-0.09-0.002L7.16,38.793C6.115,38.745,5.28,37.904,5.241,36.859z"/>
	</g>
	<defs>
		<filter id="Adobe_OpacityMaskFilter" filterUnits="userSpaceOnUse" x="12.269" y="0" width="19.653" height="32.42">
			<feColorMatrix  type="matrix" values="1 0 0 0 0  0 1 0 0 0  0 0 1 0 0  0 0 0 1 0"/>
		</filter>
	</defs>
	<mask maskUnits="userSpaceOnUse" x="12.269" y="0" width="19.653" height="32.42" id="b_1_">
		<g filter="url(#Adobe_OpacityMaskFilter)">
			<path id="a_2_" fill="#FFFFFF" d="M5.241,36.859L4.002,3.841c-0.041-1.09,0.795-2.015,1.884-2.083l28.083-1.755
				c1.108-0.069,2.063,0.773,2.133,1.882c0.002,0.042,0.004,0.083,0.004,0.125v35.977c0,1.111-0.899,2.013-2.012,2.013
				c-0.029,0-0.06,0-0.09-0.002L7.16,38.793C6.115,38.745,5.28,37.904,5.241,36.859z"/>
		</g>
	</mask>
	<path mask="url(#b_1_)" fill="#FFFFFF" d="M27.707,4.917l0.191-4.613L31.756,0l0.166,4.758c0.006,0.166-0.123,0.305-0.289,0.311
		c-0.07,0.002-0.141-0.021-0.195-0.064L29.95,3.834l-1.761,1.335c-0.133,0.1-0.32,0.074-0.422-0.058
		C27.727,5.055,27.705,4.986,27.707,4.917z M22.775,15.077c0,0.782,5.27,0.407,5.978-0.142c0-5.328-2.858-8.128-8.094-8.128
		s-8.168,2.844-8.168,7.109c0,7.43,10.024,7.57,10.024,11.622c0,1.138-0.558,1.813-1.783,1.813c-1.597,0-2.228-0.814-2.153-3.588
		c0-0.602-6.089-0.789-6.275,0c-0.473,6.719,3.713,8.656,8.502,8.656c4.641,0,8.28-2.475,8.28-6.952
		c0-7.962-10.173-7.749-10.173-11.694c0-1.6,1.188-1.813,1.894-1.813C21.55,11.96,22.887,12.091,22.775,15.077z"/>
</g>
</svg>
